<svg xmlns="http://www.w3.org/2000/svg" viewBox="0 0 400 240" role="img"><defs><linearGradient id="g" x1="0" y1="0" x2="0" y2="1"><stop offset="0" stop-color="#8ecae6"/><stop offset="1" stop-color="#e9f5db"/></linearGradient></defs><rect width="400" height="240" fill="url(#g)"/><circle cx="133" cy="57" r="22" fill="#fff3b0" opacity=".9"/><rect x="27" y="150" width="6" height="35" fill="#6b4226"/><circle cx="30" cy="140" r="24" fill="#2d6a4f" opacity=".85"/><circle cx="38" cy="132" r="5" fill="#ffafcc"/><rect x="87" y="150" width="6" height="35" fill="#6b4226"/><circle cx="90" cy="140" r="24" fill="#2d6a4f" opacity=".85"/><circle cx="98" cy="132" r="5" fill="#ffafcc"/><rect x="327" y="150" width="6" height="35" fill="#6b4226"/><circle cx="330" cy="140" r="24" fill="#2d6a4f" opacity=".85"/><circle cx="338" cy="132" r="5" fill="#ffafcc"/><rect x="367" y="150" width="6" height="35" fill="#6b4226"/><circle cx="370" cy="140" r="24" fill="#2d6a4f" opacity=".85"/><circle cx="378" cy="132" r="5" fill="#ffafcc"/><rect y="180" width="400" height="60" fill="#95d5b2"/><rect x="165" y="60" width="70" height="140" fill="#e0fbfc" opacity=".95"/><rect x="165" y="56" width="70" height="6" fill="#2d6a4f"/><rect x="172" y="68" width="10" height="8" fill="#ffe8a3"/><rect x="188" y="68" width="10" height="8" fill="#98c1d9"/><rect x="204" y="68" width="10" height="8" fill="#ffe8a3"/><rect x="220" y="68" width="10" height="8" fill="#ffe8a3"/><rect x="172" y="82" width="10" height="8" fill="#98c1d9"/><rect x="188" y="82" width="10" height="8" fill="#ffe8a3"/><rect x="204" y="82" width="10" height="8" fill="#ffe8a3"/><rect x="220" y="82" width="10" height="8" fill="#98c1d9"/><rect x="172" y="96" width="10" height="8" fill="#ffe8a3"/><rect x="188" y="96" width="10" height="8" fill="#ffe8a3"/><rect x="204" y="96" width="10" height="8" fill="#98c1d9"/><rect x="220" y="96" width="10" height="8" fill="#ffe8a3"/><rect x="172" y="110" width="10" height="8" fill="#ffe8a3"/><rect x="188" y="110" width="10" height="8" fill="#98c1d9"/><rect x="204" y="110" width="10" height="8" fill="#ffe8a3"/><rect x="220" y="110" width="10" height="8" fill="#ffe8a3"/><rect x="172" y="124" width="10" height="8" fill="#98c1d9"/><rect x="188" y="124" width="10" height="8" fill="#ffe8a3"/><rect x="204" y="124" width="10" height="8" fill="#ffe8a3"/><rect x="220" y="124" width="10" height="8" fill="#98c1d9"/><rect x="172" y="138" width="10" height="8" fill="#ffe8a3"/><rect x="188" y="138" width="10" height="8" fill="#ffe8a3"/><rect x="204" y="138" width="10" height="8" fill="#98c1d9"/><rect x="220" y="138" width="10" height="8" fill="#ffe8a3"/><rect x="172" y="152" width="10" height="8" fill="#ffe8a3"/><rect x="188" y="152" width="10" height="8" fill="#98c1d9"/><rect x="204" y="152" width="10" height="8" fill="#ffe8a3"/><rect x="220" y="152" width="10" height="8" fill="#ffe8a3"/><rect x="172" y="166" width="10" height="8" fill="#98c1d9"/><rect x="188" y="166" width="10" height="8" fill="#ffe8a3"/><rect x="204" y="166" width="10" height="8" fill="#ffe8a3"/><rect x="220" y="166" width="10" height="8" fill="#98c1d9"/><rect x="172" y="180" width="10" height="8" fill="#ffe8a3"/><rect x="188" y="180" width="10" height="8" fill="#ffe8a3"/><rect x="204" y="180" width="10" height="8" fill="#98c1d9"/><rect x="220" y="180" width="10" height="8" fill="#ffe8a3"/></svg>