<svg xmlns="http://www.w3.org/2000/svg" viewBox="0 0 400 240" role="img"><defs><linearGradient id="g" x1="0" y1="0" x2="0" y2="1"><stop offset="0" stop-color="#6d83f2"/><stop offset="1" stop-color="#f5c6ec"/></linearGradient></defs><rect width="400" height="240" fill="url(#g)"/><circle cx="128" cy="62" r="22" fill="#ffe29a" opacity=".9"/><rect x="10" y="120" width="44" height="60" fill="#5f4bb6" opacity=".35"/><rect x="66" y="90" width="44" height="90" fill="#5f4bb6" opacity=".35"/><rect x="122" y="130" width="44" height="50" fill="#5f4bb6" opacity=".35"/><rect x="178" y="70" width="44" height="110" fill="#5f4bb6" opacity=".35"/><rect x="234" y="110" width="44" height="70" fill="#5f4bb6" opacity=".35"/><rect x="290" y="95" width="44" height="85" fill="#5f4bb6" opacity=".35"/><rect x="346" y="125" width="44" height="55" fill="#5f4bb6" opacity=".35"/><path d="M300 180 v-40 a22 22 0 0 1 44 0 v40 h-10 v-30 a12 12 0 0 0 -24 0 v30z" fill="#5f4bb6" opacity=".6"/><rect y="178" width="400" height="62" fill="#9aa5b1"/><rect x="165" y="60" width="70" height="140" fill="#e0fbfc" opacity=".95"/><rect x="165" y="56" width="70" height="6" fill="#5f4bb6"/><rect x="172" y="68" width="10" height="8" fill="#98c1d9"/><rect x="188" y="68" width="10" height="8" fill="#ffe8a3"/><rect x="204" y="68" width="10" height="8" fill="#ffe8a3"/><rect x="220" y="68" width="10" height="8" fill="#98c1d9"/><rect x="172" y="82" width="10" height="8" fill="#ffe8a3"/><rect x="188" y="82" width="10" height="8" fill="#ffe8a3"/><rect x="204" y="82" width="10" height="8" fill="#98c1d9"/><rect x="220" y="82" width="10" height="8" fill="#ffe8a3"/><rect x="172" y="96" width="10" height="8" fill="#ffe8a3"/><rect x="188" y="96" width="10" height="8" fill="#98c1d9"/><rect x="204" y="96" width="10" height="8" fill="#ffe8a3"/><rect x="220" y="96" width="10" height="8" fill="#ffe8a3"/><rect x="172" y="110" width="10" height="8" fill="#98c1d9"/><rect x="188" y="110" width="10" height="8" fill="#ffe8a3"/><rect x="204" y="110" width="10" height="8" fill="#ffe8a3"/><rect x="220" y="110" width="10" height="8" fill="#98c1d9"/><rect x="172" y="124" width="10" height="8" fill="#ffe8a3"/><rect x="188" y="124" width="10" height="8" fill="#ffe8a3"/><rect x="204" y="124" width="10" height="8" fill="#98c1d9"/><rect x="220" y="124" width="10" height="8" fill="#ffe8a3"/><rect x="172" y="138" width="10" height="8" fill="#ffe8a3"/><rect x="188" y="138" width="10" height="8" fill="#98c1d9"/><rect x="204" y="138" width="10" height="8" fill="#ffe8a3"/><rect x="220" y="138" width="10" height="8" fill="#ffe8a3"/><rect x="172" y="152" width="10" height="8" fill="#98c1d9"/><rect x="188" y="152" width="10" height="8" fill="#ffe8a3"/><rect x="204" y="152" width="10" height="8" fill="#ffe8a3"/><rect x="220" y="152" width="10" height="8" fill="#98c1d9"/><rect x="172" y="166" width="10" height="8" fill="#ffe8a3"/><rect x="188" y="166" width="10" height="8" fill="#ffe8a3"/><rect x="204" y="166" width="10" height="8" fill="#98c1d9"/><rect x="220" y="166" width="10" height="8" fill="#ffe8a3"/><rect x="172" y="180" width="10" height="8" fill="#ffe8a3"/><rect x="188" y="180" width="10" height="8" fill="#98c1d9"/><rect x="204" y="180" width="10" height="8" fill="#ffe8a3"/><rect x="220" y="180" width="10" height="8" fill="#ffe8a3"/></svg>