<svg xmlns="http://www.w3.org/2000/svg" viewBox="0 0 400 240" role="img"><defs><linearGradient id="g" x1="0" y1="0" x2="0" y2="1"><stop offset="0" stop-color="#ffb347"/><stop offset="1" stop-color="#ffe8c7"/></linearGradient></defs><rect width="400" height="240" fill="url(#g)"/><circle cx="75" cy="75" r="22" fill="#fff5b1" opacity=".9"/><path d="M318 180 L326 40 L334 180Z" fill="#264653" opacity=".7"/><path d="M0 185 Q120 150 240 185 T400 175 V240 H0Z" fill="#e9c46a"/><rect x="165" y="60" width="70" height="140" fill="#e0fbfc" opacity=".95"/><rect x="165" y="56" width="70" height="6" fill="#264653"/><rect x="172" y="68" width="10" height="8" fill="#ffe8a3"/><rect x="188" y="68" width="10" height="8" fill="#98c1d9"/><rect x="204" y="68" width="10" height="8" fill="#ffe8a3"/><rect x="220" y="68" width="10" height="8" fill="#ffe8a3"/><rect x="172" y="82" width="10" height="8" fill="#98c1d9"/><rect x="188" y="82" width="10" height="8" fill="#ffe8a3"/><rect x="204" y="82" width="10" height="8" fill="#ffe8a3"/><rect x="220" y="82" width="10" height="8" fill="#98c1d9"/><rect x="172" y="96" width="10" height="8" fill="#ffe8a3"/><rect x="188" y="96" width="10" height="8" fill="#ffe8a3"/><rect x="204" y="96" width="10" height="8" fill="#98c1d9"/><rect x="220" y="96" width="10" height="8" fill="#ffe8a3"/><rect x="172" y="110" width="10" height="8" fill="#ffe8a3"/><rect x="188" y="110" width="10" height="8" fill="#98c1d9"/><rect x="204" y="110" width="10" height="8" fill="#ffe8a3"/><rect x="220" y="110" width="10" height="8" fill="#ffe8a3"/><rect x="172" y="124" width="10" height="8" fill="#98c1d9"/><rect x="188" y="124" width="10" height="8" fill="#ffe8a3"/><rect x="204" y="124" width="10" height="8" fill="#ffe8a3"/><rect x="220" y="124" width="10" height="8" fill="#98c1d9"/><rect x="172" y="138" width="10" height="8" fill="#ffe8a3"/><rect x="188" y="138" width="10" height="8" fill="#ffe8a3"/><rect x="204" y="138" width="10" height="8" fill="#98c1d9"/><rect x="220" y="138" width="10" height="8" fill="#ffe8a3"/><rect x="172" y="152" width="10" height="8" fill="#ffe8a3"/><rect x="188" y="152" width="10" height="8" fill="#98c1d9"/><rect x="204" y="152" width="10" height="8" fill="#ffe8a3"/><rect x="220" y="152" width="10" height="8" fill="#ffe8a3"/><rect x="172" y="166" width="10" height="8" fill="#98c1d9"/><rect x="188" y="166" width="10" height="8" fill="#ffe8a3"/><rect x="204" y="166" width="10" height="8" fill="#ffe8a3"/><rect x="220" y="166" width="10" height="8" fill="#98c1d9"/><rect x="172" y="180" width="10" height="8" fill="#ffe8a3"/><rect x="188" y="180" width="10" height="8" fill="#ffe8a3"/><rect x="204" y="180" width="10" height="8" fill="#98c1d9"/><rect x="220" y="180" width="10" height="8" fill="#ffe8a3"/></svg>