<svg xmlns="http://www.w3.org/2000/svg" viewBox="0 0 400 240" role="img"><defs><linearGradient id="g" x1="0" y1="0" x2="0" y2="1"><stop offset="0" stop-color="#ffb347"/><stop offset="1" stop-color="#ffe8c7"/></linearGradient></defs><rect width="400" height="240" fill="url(#g)"/><circle cx="181" cy="79" r="22" fill="#fff5b1" opacity=".9"/><path d="M318 180 L326 40 L334 180Z" fill="#264653" opacity=".7"/><path d="M0 185 Q120 150 240 185 T400 175 V240 H0Z" fill="#e9c46a"/><rect x="110" y="140" width="180" height="50" rx="6" fill="#fffaf0"/><path d="M100 142 L200 112 L300 142Z" fill="#264653"/><rect x="122" y="152" width="16" height="14" rx="2" fill="#ffe8a3"/><rect x="149" y="152" width="16" height="14" rx="2" fill="#ffe8a3"/><rect x="176" y="152" width="16" height="14" rx="2" fill="#ffe8a3"/><rect x="203" y="152" width="16" height="14" rx="2" fill="#ffe8a3"/><rect x="230" y="152" width="16" height="14" rx="2" fill="#ffe8a3"/><rect x="257" y="152" width="16" height="14" rx="2" fill="#ffe8a3"/><rect x="130" y="198" width="140" height="18" rx="9" fill="#48cae4"/><path d="M100 215 l12 -22 l12 22z" fill="#264653"/><path d="M290 215 l12 -22 l12 22z" fill="#264653"/></svg>