<svg xmlns="http://www.w3.org/2000/svg" viewBox="0 0 400 240" role="img"><defs><linearGradient id="g" x1="0" y1="0" x2="0" y2="1"><stop offset="0" stop-color="#90e0ef"/><stop offset="1" stop-color="#fefae0"/></linearGradient></defs><rect width="400" height="240" fill="url(#g)"/><circle cx="75" cy="75" r="22" fill="#ffd60a" opacity=".9"/><rect y="150" width="400" height="90" fill="#1b4332" opacity=".55"/><path d="M40 185 h120 l-15 16 h-90z" fill="#6b4226"/><path d="M60 185 q40 -30 80 0" fill="#d4a373"/><path d="M320 160 q5 -35 0 -70" stroke="#6b4226" stroke-width="5" fill="none"/><path d="M320 90 q-26 0 -34 14 M320 90 q26 -4 34 10 M320 90 q-10 -22 -26 -18 M320 90 q12 -22 28 -14" stroke="#1b4332" stroke-width="6" fill="none" stroke-linecap="round"/><path d="M360 160 q5 -35 0 -70" stroke="#6b4226" stroke-width="5" fill="none"/><path d="M360 90 q-26 0 -34 14 M360 90 q26 -4 34 10 M360 90 q-10 -22 -26 -18 M360 90 q12 -22 28 -14" stroke="#1b4332" stroke-width="6" fill="none" stroke-linecap="round"/><rect y="205" width="400" height="35" fill="#52b788"/><rect x="120" y="130" width="160" height="70" fill="#fceade"/><path d="M122 130 a18 20 0 0 1 36 0z" fill="#1b4332"/><rect x="138" y="102" width="4" height="10" fill="#1b4332"/><path d="M182 130 a18 20 0 0 1 36 0z" fill="#1b4332"/><rect x="198" y="102" width="4" height="10" fill="#1b4332"/><path d="M242 130 a18 20 0 0 1 36 0z" fill="#1b4332"/><rect x="258" y="102" width="4" height="10" fill="#1b4332"/><path d="M132 200 v-30 a9 10 0 0 1 18 0 v30z" fill="#ffe8a3" opacity=".9"/><path d="M162 200 v-30 a9 10 0 0 1 18 0 v30z" fill="#ffe8a3" opacity=".9"/><path d="M192 200 v-30 a9 10 0 0 1 18 0 v30z" fill="#ffe8a3" opacity=".9"/><path d="M222 200 v-30 a9 10 0 0 1 18 0 v30z" fill="#ffe8a3" opacity=".9"/><path d="M252 200 v-30 a9 10 0 0 1 18 0 v30z" fill="#ffe8a3" opacity=".9"/></svg>