<svg xmlns="http://www.w3.org/2000/svg" viewBox="0 0 400 240" role="img"><defs><linearGradient id="g" x1="0" y1="0" x2="0" y2="1"><stop offset="0" stop-color="#90e0ef"/><stop offset="1" stop-color="#fefae0"/></linearGradient></defs><rect width="400" height="240" fill="url(#g)"/><circle cx="287" cy="53" r="22" fill="#ffd60a" opacity=".9"/><rect y="150" width="400" height="90" fill="#1b4332" opacity=".55"/><path d="M40 185 h120 l-15 16 h-90z" fill="#6b4226"/><path d="M60 185 q40 -30 80 0" fill="#d4a373"/><path d="M320 160 q5 -35 0 -70" stroke="#6b4226" stroke-width="5" fill="none"/><path d="M320 90 q-26 0 -34 14 M320 90 q26 -4 34 10 M320 90 q-10 -22 -26 -18 M320 90 q12 -22 28 -14" stroke="#1b4332" stroke-width="6" fill="none" stroke-linecap="round"/><path d="M360 160 q5 -35 0 -70" stroke="#6b4226" stroke-width="5" fill="none"/><path d="M360 90 q-26 0 -34 14 M360 90 q26 -4 34 10 M360 90 q-10 -22 -26 -18 M360 90 q12 -22 28 -14" stroke="#1b4332" stroke-width="6" fill="none" stroke-linecap="round"/><rect y="205" width="400" height="35" fill="#52b788"/><rect x="165" y="60" width="70" height="140" fill="#e0fbfc" opacity=".95"/><rect x="165" y="56" width="70" height="6" fill="#1b4332"/><rect x="172" y="68" width="10" height="8" fill="#98c1d9"/><rect x="188" y="68" width="10" height="8" fill="#ffe8a3"/><rect x="204" y="68" width="10" height="8" fill="#ffe8a3"/><rect x="220" y="68" width="10" height="8" fill="#98c1d9"/><rect x="172" y="82" width="10" height="8" fill="#ffe8a3"/><rect x="188" y="82" width="10" height="8" fill="#ffe8a3"/><rect x="204" y="82" width="10" height="8" fill="#98c1d9"/><rect x="220" y="82" width="10" height="8" fill="#ffe8a3"/><rect x="172" y="96" width="10" height="8" fill="#ffe8a3"/><rect x="188" y="96" width="10" height="8" fill="#98c1d9"/><rect x="204" y="96" width="10" height="8" fill="#ffe8a3"/><rect x="220" y="96" width="10" height="8" fill="#ffe8a3"/><rect x="172" y="110" width="10" height="8" fill="#98c1d9"/><rect x="188" y="110" width="10" height="8" fill="#ffe8a3"/><rect x="204" y="110" width="10" height="8" fill="#ffe8a3"/><rect x="220" y="110" width="10" height="8" fill="#98c1d9"/><rect x="172" y="124" width="10" height="8" fill="#ffe8a3"/><rect x="188" y="124" width="10" height="8" fill="#ffe8a3"/><rect x="204" y="124" width="10" height="8" fill="#98c1d9"/><rect x="220" y="124" width="10" height="8" fill="#ffe8a3"/><rect x="172" y="138" width="10" height="8" fill="#ffe8a3"/><rect x="188" y="138" width="10" height="8" fill="#98c1d9"/><rect x="204" y="138" width="10" height="8" fill="#ffe8a3"/><rect x="220" y="138" width="10" height="8" fill="#ffe8a3"/><rect x="172" y="152" width="10" height="8" fill="#98c1d9"/><rect x="188" y="152" width="10" height="8" fill="#ffe8a3"/><rect x="204" y="152" width="10" height="8" fill="#ffe8a3"/><rect x="220" y="152" width="10" height="8" fill="#98c1d9"/><rect x="172" y="166" width="10" height="8" fill="#ffe8a3"/><rect x="188" y="166" width="10" height="8" fill="#ffe8a3"/><rect x="204" y="166" width="10" height="8" fill="#98c1d9"/><rect x="220" y="166" width="10" height="8" fill="#ffe8a3"/><rect x="172" y="180" width="10" height="8" fill="#ffe8a3"/><rect x="188" y="180" width="10" height="8" fill="#98c1d9"/><rect x="204" y="180" width="10" height="8" fill="#ffe8a3"/><rect x="220" y="180" width="10" height="8" fill="#ffe8a3"/></svg>