<svg xmlns="http://www.w3.org/2000/svg" viewBox="0 0 400 240" role="img"><defs><linearGradient id="g" x1="0" y1="0" x2="0" y2="1"><stop offset="0" stop-color="#577590"/><stop offset="1" stop-color="#d8e2dc"/></linearGradient></defs><rect width="400" height="240" fill="url(#g)"/><circle cx="234" cy="66" r="22" fill="#f9e79f" opacity=".9"/><rect y="150" width="400" height="90" fill="#8d0801" opacity=".55"/><rect x="320" y="60" width="22" height="110" fill="#3d405b"/><path d="M320 60 L331 38 L342 60Z" fill="#3d405b"/><circle cx="331" cy="80" r="7" fill="#f2cc8f"/><path d="M150 150 q60 -40 120 0" stroke="#3d405b" stroke-width="5" fill="none"/><rect x="140" y="150" width="140" height="8" fill="#3d405b"/><rect y="185" width="400" height="55" fill="#6c757d"/><rect x="160" y="120" width="80" height="80" fill="#f1faee"/><rect x="170" y="108" width="60" height="14" rx="3" fill="#8d0801"/><rect x="168" y="132" width="14" height="16" fill="#ffe8a3"/><rect x="192" y="132" width="14" height="16" fill="#ffe8a3"/><rect x="216" y="132" width="14" height="16" fill="#ffe8a3"/><rect x="168" y="158" width="14" height="16" fill="#ffe8a3"/><rect x="192" y="158" width="14" height="16" fill="#ffe8a3"/><rect x="216" y="158" width="14" height="16" fill="#ffe8a3"/><rect x="192" y="180" width="16" height="20" fill="#6c757d"/></svg>