<svg xmlns="http://www.w3.org/2000/svg" viewBox="0 0 400 240" role="img"><defs><linearGradient id="g" x1="0" y1="0" x2="0" y2="1"><stop offset="0" stop-color="#1d3557"/><stop offset="1" stop-color="#e76f51"/></linearGradient></defs><rect width="400" height="240" fill="url(#g)"/><circle cx="181" cy="79" r="22" fill="#ffb703" opacity=".9"/><rect y="150" width="400" height="90" fill="#f4a261" opacity=".55"/><rect x="200" y="110" width="26" height="40" fill="#0b132b" opacity=".6"/><rect x="233" y="80" width="26" height="70" fill="#0b132b" opacity=".6"/><rect x="266" y="95" width="26" height="55" fill="#0b132b" opacity=".6"/><rect x="299" y="60" width="26" height="90" fill="#0b132b" opacity=".6"/><rect x="332" y="90" width="26" height="60" fill="#0b132b" opacity=".6"/><rect x="365" y="105" width="26" height="45" fill="#0b132b" opacity=".6"/><path d="M0 205 Q200 150 400 190 V240 H0Z" fill="#2a4d69"/><rect x="165" y="60" width="70" height="140" fill="#e0fbfc" opacity=".95"/><rect x="165" y="56" width="70" height="6" fill="#f4a261"/><rect x="172" y="68" width="10" height="8" fill="#ffe8a3"/><rect x="188" y="68" width="10" height="8" fill="#ffe8a3"/><rect x="204" y="68" width="10" height="8" fill="#98c1d9"/><rect x="220" y="68" width="10" height="8" fill="#ffe8a3"/><rect x="172" y="82" width="10" height="8" fill="#ffe8a3"/><rect x="188" y="82" width="10" height="8" fill="#98c1d9"/><rect x="204" y="82" width="10" height="8" fill="#ffe8a3"/><rect x="220" y="82" width="10" height="8" fill="#ffe8a3"/><rect x="172" y="96" width="10" height="8" fill="#98c1d9"/><rect x="188" y="96" width="10" height="8" fill="#ffe8a3"/><rect x="204" y="96" width="10" height="8" fill="#ffe8a3"/><rect x="220" y="96" width="10" height="8" fill="#98c1d9"/><rect x="172" y="110" width="10" height="8" fill="#ffe8a3"/><rect x="188" y="110" width="10" height="8" fill="#ffe8a3"/><rect x="204" y="110" width="10" height="8" fill="#98c1d9"/><rect x="220" y="110" width="10" height="8" fill="#ffe8a3"/><rect x="172" y="124" width="10" height="8" fill="#ffe8a3"/><rect x="188" y="124" width="10" height="8" fill="#98c1d9"/><rect x="204" y="124" width="10" height="8" fill="#ffe8a3"/><rect x="220" y="124" width="10" height="8" fill="#ffe8a3"/><rect x="172" y="138" width="10" height="8" fill="#98c1d9"/><rect x="188" y="138" width="10" height="8" fill="#ffe8a3"/><rect x="204" y="138" width="10" height="8" fill="#ffe8a3"/><rect x="220" y="138" width="10" height="8" fill="#98c1d9"/><rect x="172" y="152" width="10" height="8" fill="#ffe8a3"/><rect x="188" y="152" width="10" height="8" fill="#ffe8a3"/><rect x="204" y="152" width="10" height="8" fill="#98c1d9"/><rect x="220" y="152" width="10" height="8" fill="#ffe8a3"/><rect x="172" y="166" width="10" height="8" fill="#ffe8a3"/><rect x="188" y="166" width="10" height="8" fill="#98c1d9"/><rect x="204" y="166" width="10" height="8" fill="#ffe8a3"/><rect x="220" y="166" width="10" height="8" fill="#ffe8a3"/><rect x="172" y="180" width="10" height="8" fill="#98c1d9"/><rect x="188" y="180" width="10" height="8" fill="#ffe8a3"/><rect x="204" y="180" width="10" height="8" fill="#ffe8a3"/><rect x="220" y="180" width="10" height="8" fill="#98c1d9"/></svg>