<svg xmlns="http://www.w3.org/2000/svg" viewBox="0 0 400 240" role="img"><defs><linearGradient id="g" x1="0" y1="0" x2="0" y2="1"><stop offset="0" stop-color="#1d3557"/><stop offset="1" stop-color="#e76f51"/></linearGradient></defs><rect width="400" height="240" fill="url(#g)"/><circle cx="287" cy="53" r="22" fill="#ffb703" opacity=".9"/><rect y="150" width="400" height="90" fill="#f4a261" opacity=".55"/><rect x="200" y="110" width="26" height="40" fill="#0b132b" opacity=".6"/><rect x="233" y="80" width="26" height="70" fill="#0b132b" opacity=".6"/><rect x="266" y="95" width="26" height="55" fill="#0b132b" opacity=".6"/><rect x="299" y="60" width="26" height="90" fill="#0b132b" opacity=".6"/><rect x="332" y="90" width="26" height="60" fill="#0b132b" opacity=".6"/><rect x="365" y="105" width="26" height="45" fill="#0b132b" opacity=".6"/><path d="M0 205 Q200 150 400 190 V240 H0Z" fill="#2a4d69"/><rect x="150" y="100" width="100" height="100" rx="4" fill="#fdf0d5"/><rect x="150" y="96" width="100" height="10" fill="#f4a261"/><path d="M162 140 v-14 a8 8 0 0 1 16 0 v14z" fill="#ffe8a3"/><path d="M190 140 v-14 a8 8 0 0 1 16 0 v14z" fill="#ffe8a3"/><path d="M218 140 v-14 a8 8 0 0 1 16 0 v14z" fill="#ffe8a3"/><path d="M162 168 v-14 a8 8 0 0 1 16 0 v14z" fill="#ffe8a3"/><path d="M190 168 v-14 a8 8 0 0 1 16 0 v14z" fill="#ffe8a3"/><path d="M218 168 v-14 a8 8 0 0 1 16 0 v14z" fill="#ffe8a3"/><path d="M162 196 v-14 a8 8 0 0 1 16 0 v14z" fill="#ffe8a3"/><path d="M190 196 v-14 a8 8 0 0 1 16 0 v14z" fill="#ffe8a3"/><path d="M218 196 v-14 a8 8 0 0 1 16 0 v14z" fill="#ffe8a3"/><rect x="190" y="178" width="20" height="22" fill="#f4a261"/></svg>